<svg width="960" height="960" viewBox="0 0 960 960" fill="none" xmlns="http://www.w3.org/2000/svg">
<g clip-path="url(#clip0_46_123)">
<g clip-path="url(#clip1_46_123)">
<path fill-rule="evenodd" clip-rule="evenodd" d="M746 519.3C749.065 501.484 739.259 483.292 725.111 472.039C710.963 460.785 693.1 455.362 675.437 451.524L673.827 451.943C679.697 474.544 681.199 498.335 674.233 519.3V520.03L746 519.895V519.3ZM695.824 468.464C694.713 468.322 693.696 469.107 693.554 470.219C693.411 471.33 694.197 472.347 695.308 472.489C713.083 474.768 728.7 489.25 732.313 506.801C732.539 507.899 733.612 508.605 734.71 508.379C735.807 508.153 736.514 507.08 736.288 505.983C732.325 486.734 715.318 470.964 695.824 468.464Z" fill="url(#paint0_linear_46_123)"/>
<path d="M274.019 520.731L245.277 838.331L244.371 838.25C213.519 838.439 182.234 838.588 152.071 832.61C146.728 831.555 141.417 830.292 136.138 828.823C101.147 819.017 67.6851 797.741 51.6031 765.158C36.4031 734.347 38.5101 697.679 46.9771 664.392C65.0071 593.531 111.183 530.232 173.171 491.44C198.314 475.774 225.737 464.106 254.46 456.855C296.8 446 341.047 444.867 383.886 453.541L385.725 453.365C384.562 447.671 383.385 441.895 383.831 436.106C384.277 430.317 386.577 424.42 391.175 420.876C396.031 417.143 402.523 416.576 408.637 416.223C415.589 415.817 422.55 415.497 429.521 415.263C451.581 414.479 473.65 414.497 495.729 415.317C504.237 415.642 512.74 416.079 521.238 416.629C530.219 417.224 540.323 418.536 545.719 425.729C550.466 432.086 549.844 440.891 548.383 448.695C543.663 473.866 529.839 500.647 513.352 520.259V520.313L274.019 520.731Z" fill="url(#paint1_linear_46_123)"/>
<path d="M489.482 291.58C491.467 293.085 493.95 293.781 496.428 293.526C498.906 293.271 501.194 292.085 502.831 290.208C504.469 288.33 505.332 285.901 505.246 283.411C505.161 280.922 504.134 278.557 502.372 276.796" stroke="#171717" stroke-width="4.058" stroke-linecap="round" stroke-linejoin="round"/>
<path d="M478.106 331.832C476.254 332.894 474.15 333.436 472.015 333.401C469.881 333.366 467.795 332.755 465.979 331.633C464.163 330.51 462.684 328.919 461.697 327.025C460.711 325.132 460.254 323.008 460.374 320.876" stroke="#171717" stroke-width="4.058" stroke-linecap="round" stroke-linejoin="round"/>
<path d="M390.853 253.79C399.268 253.567 407.648 252.622 415.902 250.963C458.183 242.537 496.88 216.121 519.278 179.183C519.4 179.007 519.494 178.845 519.603 178.669" stroke="#171717" stroke-width="4.058" stroke-linecap="round" stroke-linejoin="round"/>
<path d="M515.883 174.881C516.952 176.369 518.088 177.803 519.283 179.181C527.945 189.042 539.317 196.137 551.983 199.581C561.286 202.198 571.059 202.683 580.576 201" stroke="#171717" stroke-width="4.058" stroke-linecap="round" stroke-linejoin="round"/>
<path d="M445.564 242.577C445.898 245.179 447.209 247.557 449.23 249.228C451.252 250.9 453.834 251.74 456.452 251.578C459.071 251.417 461.53 250.265 463.33 248.358C465.131 246.45 466.139 243.929 466.15 241.306" stroke="#171717" stroke-width="4.058" stroke-linecap="round" stroke-linejoin="round"/>
<path d="M507.525 239.439C506.389 245.498 511.691 251.923 517.859 251.977C524.027 252.031 529.41 245.688 528.382 239.601" stroke="#171717" stroke-width="4.058" stroke-linecap="round" stroke-linejoin="round"/>
<path d="M501.168 220.544C503.439 218.39 506.126 216.72 509.063 215.636C512 214.553 515.127 214.078 518.254 214.241C521.38 214.405 524.441 215.202 527.249 216.586C530.058 217.969 532.555 219.91 534.59 222.289" stroke="#171717" stroke-width="4.058" stroke-linecap="round" stroke-linejoin="round"/>
<path d="M415.862 250.8C415.876 250.854 415.889 250.908 415.903 250.962C429.073 303.717 433.641 358.252 429.429 412.462" stroke="#171717" stroke-width="4.058" stroke-linecap="round" stroke-linejoin="round"/>
<path d="M495.744 414.988C495.189 395.538 495.444 373.843 508.823 359.722C515.897 352.256 525.798 347.982 533.023 340.651C543.37 330.128 546.86 314.79 549.123 300.209C554.547 265.218 555.818 234.772 551.99 199.579C551.99 199.538 551.976 199.498 551.976 199.457" stroke="#171717" stroke-width="4.058" stroke-linecap="round" stroke-linejoin="round"/>
<path d="M383.887 453.536C341.048 444.861 296.8 445.994 254.461 456.85C225.738 464.102 198.315 475.769 173.172 491.435C111.184 530.226 65.008 593.526 46.978 664.386C38.511 697.672 36.4 734.34 51.6 765.152C67.682 797.735 101.144 819.011 136.135 828.817C141.41 830.291 146.721 831.554 152.068 832.604C182.23 838.582 213.515 838.434 244.368 838.244" stroke="#171717" stroke-width="4.058" stroke-linecap="round" stroke-linejoin="round"/>
<path d="M162.351 662.222C196.909 657.069 231.007 666.077 258.112 688.122" stroke="#171717" stroke-width="4.058" stroke-linecap="round" stroke-linejoin="round"/>
<path d="M385.727 453.36C384.564 447.666 383.387 441.89 383.833 436.101C384.279 430.312 386.579 424.415 391.177 420.871C396.033 417.138 402.525 416.571 408.639 416.218C415.591 415.812 422.552 415.492 429.523 415.258C451.583 414.474 473.652 414.492 495.731 415.312C504.239 415.637 512.742 416.074 521.24 416.624C530.221 417.219 540.325 418.531 545.721 425.724C550.468 432.081 549.846 440.886 548.385 448.69C543.665 473.861 529.841 500.642 513.354 520.254" stroke="#171717" stroke-width="4.058" stroke-linecap="round" stroke-linejoin="round"/>
<path d="M254.447 456.768C300.907 413.919 330.515 356.068 337.183 293.23C341.822 249.461 335.749 203.43 352.562 162.762C372.012 115.747 420.69 84.489 471.181 78.254C502.655 74.354 535.563 79.336 563.317 94.674C591.071 110.012 613.24 136.074 621.545 166.684C634.854 215.701 612.415 268.058 620.274 318.238C625.674 352.715 644.836 383.161 659.985 414.594C665.788 426.568 670.422 439.074 673.822 451.938C679.692 474.538 681.193 498.331 674.228 519.295" stroke="#171717" stroke-width="4.058" stroke-linecap="round" stroke-linejoin="round"/>
<path d="M675.431 451.52C693.095 455.361 710.963 460.785 725.111 472.038C739.259 483.291 749.065 501.483 746 519.3" stroke="#171717" stroke-width="4.058" stroke-linecap="round" stroke-linejoin="round"/>
<path d="M151.815 833.889L240.286 893.402L243.654 856.152L245.277 838.325L274.019 520.731L513.354 520.312L674.228 520.028L745.995 519.892L817.274 519.771L780.268 839.11L776.224 873.992L240.286 893.402" stroke="#171717" stroke-width="3.845" stroke-linecap="round" stroke-linejoin="round"/>
<path d="M243.789 856.166L779.092 838.975" stroke="#171717" stroke-width="4.058" stroke-linecap="round" stroke-linejoin="round"/>
<path d="M658.047 132.336L730.037 66.8811" stroke="#171717" stroke-width="4.058" stroke-linecap="round" stroke-linejoin="round"/>
<path d="M638.231 111.137L646.831 75.3372" stroke="#171717" stroke-width="4.058" stroke-linecap="round" stroke-linejoin="round"/>
<path d="M671.262 160.445L702.698 162.813" stroke="#171717" stroke-width="4.058" stroke-linecap="round" stroke-linejoin="round"/>
<path d="M180.16 395.9C174.608 384.494 168.938 372.614 168.772 359.93C168.606 347.246 175.634 333.517 187.88 330.208C196.18 327.965 205.28 330.772 213.49 328.198C223.176 325.159 229.138 315.448 232.63 305.916C234.984 299.491 236.63 292.485 235.03 285.833C233.43 279.181 227.766 273.114 220.93 273.009C211.375 272.863 205.046 285.159 208.898 293.909C212.75 302.659 223.498 306.792 232.965 305.461C249.126 303.187 260.91 288.148 265.384 272.454C269.858 256.76 268.747 240.111 269.375 223.803C270.003 207.495 272.846 190.268 283.527 177.928" stroke="url(#paint2_linear_46_123)" stroke-width="4.058" stroke-linecap="round" stroke-linejoin="round"/>
<path d="M907.527 599.381C886.85 603.723 872.84 622.829 863.15 641.604C857.51 652.531 852.528 664.311 852.818 676.604C853.108 688.897 859.95 701.774 871.612 705.673C883.274 709.572 898.361 700.602 897.679 688.325C896.825 672.932 873.112 668.151 862.187 679.025C851.262 689.899 851.512 707.862 856.258 722.53C861.004 737.198 869.408 750.63 872.706 765.686C876.004 780.742 872.383 799.144 858.79 806.416C845.197 813.688 824.232 799.341 830.674 785.335" stroke="url(#paint3_linear_46_123)" stroke-width="4.058" stroke-linecap="round" stroke-linejoin="round"/>
<path d="M729.686 395.906L746.858 378.706" stroke="#171717" stroke-width="4.058" stroke-linecap="round" stroke-linejoin="round"/>
<path d="M744.022 396.31L730.007 378.879" stroke="#171717" stroke-width="4.058" stroke-linecap="round" stroke-linejoin="round"/>
<path d="M702.706 294.456C706.468 285.894 711.812 278.12 718.459 271.542" stroke="url(#paint4_linear_46_123)" stroke-width="4.058" stroke-linecap="round" stroke-linejoin="round"/>
<path d="M718.5 291.536L695.818 275.455" stroke="url(#paint5_linear_46_123)" stroke-width="4.058" stroke-linecap="round" stroke-linejoin="round"/>
<path d="M755.7 328.826L772.885 317.369" stroke="#171717" stroke-width="4.058" stroke-linecap="round" stroke-linejoin="round"/>
<path d="M768.584 330.259L758.559 313.074" stroke="#171717" stroke-width="4.058" stroke-linecap="round" stroke-linejoin="round"/>
<path d="M529.317 448.186C529.571 442.137 529.825 436.088 530.078 430.038" stroke="#171717" stroke-width="4.058" stroke-linecap="round" stroke-linejoin="round"/>
<path d="M504.274 449.116L503.362 431.928" stroke="#171717" stroke-width="4.058" stroke-linecap="round" stroke-linejoin="round"/>
<path d="M478.34 449.125V432.894" stroke="#171717" stroke-width="4.058" stroke-linecap="round" stroke-linejoin="round"/>
<path d="M448.743 450.079V432.894" stroke="#171717" stroke-width="4.058" stroke-linecap="round" stroke-linejoin="round"/>
<path d="M423.538 452.005C423.287 445.956 423.036 439.907 422.784 433.856" stroke="#171717" stroke-width="4.058" stroke-linecap="round" stroke-linejoin="round"/>
<path d="M398.973 452C398.356 446.588 397.739 441.176 397.121 435.763" stroke="#171717" stroke-width="4.058" stroke-linecap="round" stroke-linejoin="round"/>
<path d="M696.982 861.691L749.496 859.875" stroke="#171717" stroke-width="4.058" stroke-linecap="round" stroke-linejoin="round"/>
<path d="M665.471 862.531L676.928 861.576" stroke="#171717" stroke-width="4.058" stroke-linecap="round" stroke-linejoin="round"/>
<path d="M699.024 505.577C701.877 502.384 704.73 499.192 707.582 495.999" stroke="#171717" stroke-width="4.058" stroke-linecap="round" stroke-linejoin="round"/>
<path d="M706.526 506.41C704.38 502.337 701.052 499.009 696.979 496.863" stroke="#171717" stroke-width="4.058" stroke-linecap="round" stroke-linejoin="round"/>
<path d="M493.721 491.993L484.188 481.478" stroke="#171717" stroke-width="4.058" stroke-linecap="round" stroke-linejoin="round"/>
<path d="M481.23 492.117L493.638 480.656" stroke="#171717" stroke-width="4.058" stroke-linecap="round" stroke-linejoin="round"/>
<path d="M409.686 511.119L399.88 497.945" stroke="#171717" stroke-width="4.058" stroke-linecap="round" stroke-linejoin="round"/>
<path d="M395.127 511.009L409.487 498.642" stroke="#171717" stroke-width="4.058" stroke-linecap="round" stroke-linejoin="round"/>
<path d="M319.654 475.093L310.317 465.344" stroke="#171717" stroke-width="4.058" stroke-linecap="round" stroke-linejoin="round"/>
<path d="M307.624 475.118L319.984 464.555" stroke="#171717" stroke-width="4.058" stroke-linecap="round" stroke-linejoin="round"/>
<path d="M251.11 541.735C247.549 536.729 243 532.505 237.744 529.323" stroke="#171717" stroke-width="4.058" stroke-linecap="round" stroke-linejoin="round"/>
<path d="M236.684 542.614L248.332 526.521" stroke="#171717" stroke-width="4.058" stroke-linecap="round" stroke-linejoin="round"/>
<path d="M156.662 559.817L146.415 547.2" stroke="#171717" stroke-width="4.058" stroke-linecap="round" stroke-linejoin="round"/>
<path d="M145.134 557.967C150.915 555.536 155.649 551.139 158.5 545.553" stroke="#171717" stroke-width="4.058" stroke-linecap="round" stroke-linejoin="round"/>
<path d="M238.869 633.25L229.329 621.786" stroke="#171717" stroke-width="4.058" stroke-linecap="round" stroke-linejoin="round"/>
<path d="M225.332 635.3L239.653 620.979" stroke="#171717" stroke-width="4.058" stroke-linecap="round" stroke-linejoin="round"/>
<path d="M127.948 651.531L119.355 640.074" stroke="#171717" stroke-width="4.058" stroke-linecap="round" stroke-linejoin="round"/>
<path d="M114.412 651.362L125.875 639.911" stroke="#171717" stroke-width="4.058" stroke-linecap="round" stroke-linejoin="round"/>
<path d="M224.832 726.642L216.99 715.326" stroke="#171717" stroke-width="4.058" stroke-linecap="round" stroke-linejoin="round"/>
<path d="M212.846 727.831L226.179 715.384" stroke="#171717" stroke-width="4.058" stroke-linecap="round" stroke-linejoin="round"/>
<path d="M157.545 802.382L147.045 788.061" stroke="#171717" stroke-width="4.058" stroke-linecap="round" stroke-linejoin="round"/>
<path d="M143.236 802.4L159.463 787.12" stroke="#171717" stroke-width="4.058" stroke-linecap="round" stroke-linejoin="round"/>
<path d="M102.17 731.73L86.8936 719.318" stroke="#171717" stroke-width="4.058" stroke-linecap="round" stroke-linejoin="round"/>
<path d="M86.6836 732.5L98.1836 719.169" stroke="#171717" stroke-width="4.058" stroke-linecap="round" stroke-linejoin="round"/>
<path d="M270.44 155.922L262.74 136.851" stroke="#171717" stroke-width="4.058" stroke-linecap="round" stroke-linejoin="round"/>
<path d="M256.841 151.247L274.026 139.789" stroke="#171717" stroke-width="4.058" stroke-linecap="round" stroke-linejoin="round"/>
<path d="M251.285 211.244L240.743 198.866" stroke="#171717" stroke-width="4.058" stroke-linecap="round" stroke-linejoin="round"/>
<path d="M239.653 213.3L253.019 196.115" stroke="#171717" stroke-width="4.058" stroke-linecap="round" stroke-linejoin="round"/>
<path d="M906.068 669.672L920.389 659.647" stroke="#171717" stroke-width="4.058" stroke-linecap="round" stroke-linejoin="round"/>
<path d="M915.889 674.052L908.778 656.846" stroke="#171717" stroke-width="4.058" stroke-linecap="round" stroke-linejoin="round"/>
<path fill-rule="evenodd" clip-rule="evenodd" d="M415.902 250.962C458.178 242.536 496.878 216.12 519.278 179.182C527.945 189.048 539.325 196.144 551.998 199.583C555.826 234.777 554.555 265.223 549.131 300.214C546.868 314.795 543.378 330.133 533.031 340.656C529.505 344.234 525.341 347.084 521.179 349.933C516.814 352.92 512.452 355.905 508.831 359.727C495.452 373.848 495.197 395.542 495.752 414.992L495.738 415.318C504.25 415.637 512.753 416.075 521.247 416.63C530.228 417.222 540.328 418.53 545.728 425.73C550.475 432.087 549.853 440.896 548.392 448.696C543.672 473.867 529.849 500.648 513.361 520.26V520.314L674.234 520.03V519.3C681.199 498.336 679.698 474.543 673.828 451.943C670.428 439.079 665.794 426.573 659.991 414.599C656.627 407.618 653.065 400.686 649.499 393.748C637.01 369.444 624.481 345.063 620.28 318.243C616.67 295.191 619.453 271.68 622.228 248.244C625.493 220.664 628.746 193.189 621.551 166.689C613.246 136.079 591.077 110.017 563.323 94.6791C535.569 79.3411 502.661 74.3641 471.187 78.2591C420.696 84.4941 372.018 115.752 352.568 162.767C341.113 190.475 340.282 220.671 339.448 250.946C339.058 265.108 338.668 279.286 337.189 293.235C330.521 356.073 300.913 413.924 254.453 456.773L254.467 456.854C296.806 445.998 341.054 444.865 383.893 453.54L385.732 453.364L385.714 453.275C384.556 447.609 383.382 441.864 383.838 436.105C384.297 430.316 386.582 424.419 391.182 420.875C396.038 417.142 402.53 416.574 408.644 416.222C415.601 415.812 422.562 415.492 429.528 415.262L429.428 412.462C433.639 358.252 429.072 303.717 415.902 250.962ZM499.58 86.823C498.481 86.6044 497.413 87.3182 497.195 88.4173C496.976 89.5163 497.69 90.5845 498.789 90.803C535.651 98.1335 573.459 112.831 593.475 143.778C613.575 174.854 611.398 215.043 607.247 252.71C607.2 253.133 607.153 253.556 607.107 253.98L606.965 255.263C602.906 291.986 598.526 331.615 615.164 365.395C615.66 366.4 616.876 366.813 617.881 366.318C618.886 365.823 619.3 364.607 618.805 363.601C602.697 330.9 606.956 292.323 611.056 255.185L611.28 253.154C615.417 215.629 617.866 174.016 596.882 141.574C575.933 109.185 536.7 94.2045 499.58 86.823Z" fill="#171717"/>
<g opacity="0.1">
<path d="M417.038 250.834C414.388 262.994 420.352 276.969 422.993 288.753C425.865 301.405 428.028 314.208 429.471 327.102C432.342 353.438 431.817 379.295 429.983 405.652C429.375 414.4 444.15 416.596 445.483 407.752C449.53 380.994 449.469 353.035 446.565 326.172C445.126 312.667 442.97 299.248 440.108 285.972C437.515 274.037 435.022 257.136 425.338 248.64C422.703 246.328 417.88 246.947 417.038 250.832V250.834Z" fill="#171717"/>
</g>
<g opacity="0.1">
<path d="M414.368 415.347C407.591 409.805 394.718 416.053 389.912 421.786C386.083 426.363 383.729 431.991 383.159 437.931C382.589 443.871 383.829 449.844 386.718 455.066C392.526 465.371 410.733 458.422 406.338 446.795C404.463 441.835 403.129 436.952 405.364 431.878C406.31 429.32 407.727 426.963 409.541 424.927C411.362 423.115 413.726 422.021 414.925 419.664C415.586 418.364 415.62 416.371 414.368 415.347V415.347Z" fill="#171717"/>
</g>
<g opacity="0.1">
<path d="M373.6 454.849C362.263 451.625 350.351 450.567 338.6 449.892C326.9 449.219 314.936 448.248 303.23 448.824C279.359 449.999 255.348 453.505 232.703 461.255C188.327 476.442 148.319 503.495 116.769 538.103C85.8868 571.978 62.3248 613.035 50.4568 657.417C43.9088 681.904 40.5568 707.144 44.5418 732.336C48.2928 756.064 58.4548 778.636 75.8418 795.463C118.494 836.734 180.149 836.869 235.616 834.773C249.687 834.242 249.762 812.322 235.616 812.836C189.76 814.5 139.388 816.411 100.416 788.054C83.8788 776.022 73.2618 759.335 67.9218 739.729C61.9598 717.842 63.2988 695.605 67.9778 673.629C85.8468 589.715 146.694 516.157 225.778 482.907C248.649 473.291 272.989 465.32 297.488 461.267C309.988 459.2 322.62 457.187 335.316 457.222C347.938 457.256 360.424 458.722 372.999 459.362C375.627 459.496 376.06 455.547 373.609 454.85L373.6 454.849Z" fill="#171717"/>
</g>
</g>
</g>
<defs>
<linearGradient id="paint0_linear_46_123" x1="710.195" y1="451.524" x2="710.029" y2="519.657" gradientUnits="userSpaceOnUse">
<stop stop-color="#72DEFF"/>
<stop offset="1" stop-color="#1A9AEF"/>
</linearGradient>
<linearGradient id="paint1_linear_46_123" x1="294.917" y1="414.688" x2="294.01" y2="836.023" gradientUnits="userSpaceOnUse">
<stop stop-color="#72DEFF"/>
<stop offset="1" stop-color="#1A9AEF"/>
</linearGradient>
<linearGradient id="paint2_linear_46_123" x1="226.148" y1="177.928" x2="225.083" y2="394.708" gradientUnits="userSpaceOnUse">
<stop stop-color="#72DEFF"/>
<stop offset="1" stop-color="#1A9AEF"/>
</linearGradient>
<linearGradient id="paint3_linear_46_123" x1="868.501" y1="599.381" x2="867.06" y2="807.224" gradientUnits="userSpaceOnUse">
<stop stop-color="#72DEFF"/>
<stop offset="1" stop-color="#1A9AEF"/>
</linearGradient>
<linearGradient id="paint4_linear_46_123" x1="710.583" y1="271.542" x2="710.497" y2="294.331" gradientUnits="userSpaceOnUse">
<stop stop-color="#72DEFF"/>
<stop offset="1" stop-color="#1A9AEF"/>
</linearGradient>
<linearGradient id="paint5_linear_46_123" x1="707.159" y1="275.455" x2="707.13" y2="291.448" gradientUnits="userSpaceOnUse">
<stop stop-color="#72DEFF"/>
<stop offset="1" stop-color="#1A9AEF"/>
</linearGradient>
<clipPath id="clip0_46_123">
<rect width="960" height="960" fill="white"/>
</clipPath>
<clipPath id="clip1_46_123">
<rect width="885" height="832" fill="white" transform="translate(38 64)"/>
</clipPath>
</defs>
</svg>
